<?xml version="1.0" encoding="UTF-8"?>
<svg id="Layer_3" data-name="Layer 3" xmlns="http://www.w3.org/2000/svg" viewBox="0 0 64 64">
  <defs>
    <style>
      .cls-1 {
        fill: none;
        stroke: currentcolor;
      }

      .cls-2 {
        fill: currentcolor;
      }
    </style>
  </defs>
  <path class="cls-1" d="M22.8051,42.5577c2.1627-.9449,4.6111-2.9444,6.1389-3.9444-.0972-5.7083-.75-16.9444-.9722-19.3333-2.0069-1.0694-7.1541-4.8295-10.8611-4.3333-2.75,.3681-6.1667,4.8889-5.7778,7.3611,1.0269,6.5279,1.5231,9.8733,2.3611,11.8611,1.4775,3.5048,3.3994,6.2531,6.1389,8.0833,.2392,.1598,2.4861,.5179,2.9722,.3056Z" />
  <path class="cls-1" d="M31.6106,18.9396c2.4583,13.0417,.9792,28.3333-5.125,28.5833,1.7778-2.6042,2.0417-5.7014,2.4583-8.9097" />
  <path class="cls-1" d="M13.901,41.9726c-.1966,1.8004,.0291,3.2101,.4874,5.3907-5.3472-2.875-3.7222-15.4097-3.7778-18.1319-.03-1.1247-.7126-12.5598,2.3056-15.3403,3.5278-3.25,6.9522-6.2879,12.7778-5.8889,7.9788,.5465,12.1552,3.4747,13.1667,9.3333,.5084,2.9444,4.9271,20.4583,.9375,24.1042,.0278-3.0833,.0625-4.6319-.8125-6.7708,.0972,3.5278,.3834,5.7778-1,7.4167" />
  <path class="cls-1" d="M15.8005,41.7978c.5208,3.1944,1.449,5.4543,3.9906,7.2321-3.5278-1.0556-6.4861-7.5833-7.4306-11.4861" />
  <path class="cls-1" d="M26.2577,45.2394c-2.8941,.1255-4.7059-1.8114-4.9961-1.9525,.2832,.7153,.9098,2.1643,1.4115,2.7361-3.3542,.3681-6.4236-3.1597-7.7569-5.6458" />
  <path class="cls-1" d="M24.0551,10.1549c-5.4167,1.0139-5.9346,2.8021-7.0958,4.816" />
  <path class="cls-1" d="M15.194,76.7834c-3.1944-10.4757,2.8056-16.059,5.7222-20.059,.1486,2.524-.8889,6.1389,1.2222,10.0556,4.2778-2.4444,8.5-7.7222,13.7778-11.4167,4.4306,4.9028,6.9817,8.8387,7.4444,9.5833,1.5278,2.4583,3.5,5.2778,6.8056,5.4444-1.0556,2.5833-1.8051,4.1063-3.6667,6.3924" />
  <path class="cls-1" d="M41.6245,44.641c-2.2083,3.7361-4.25,6.3333-5.7083,10.7222" />
  <path class="cls-1" d="M24.3467,51.7521c-1,1.5648-2,3.4722-3.4306,4.9722" />
  <path class="cls-1" d="M70.8856,73.0855c-6.0667-8.9583-11.4-17.2917-15.025-23-2.8788-4.5334-4.7396-10.4688-15.9896-4.5312-.6398-.959-1.3854-2.4271-1.8854-3.4688-3.2708,2.0208-7.4583,8.6042-8.5833,12.6667-1-2.5208-2.0139-7.2292-2.2778-7.2292-.2639,1.0347-.4583,2.2847-.6389,3.2292-3.6262,2-5.8987,1-9.625,6.25-6.1886,8.7192-9.6111,15.1111-14.8056,19.7813" />
  <path class="cls-1" d="M27.0175,46.6496c-.3056-.5926-.7958-1.8049-1.1013-2.3975,.9444-.2917,1.6111-.5972,2.3273-1.0388" />
  <path class="cls-1" d="M31.4356,41.8155c1.9664-.886,3.3377-1.5888,5.0807-2.7659" />
  <path class="cls-1" d="M37.4549,41.1272c-2.2535,1.4653-4.771,2.677-7.4098,3.9305" />
  <path class="cls-1" d="M35.4162,32.1132c-.2118,3.5868,.7674,6.8993,2.5694,9.9722" />
  <path class="cls-1" d="M24.7807,41.4876c.3557,.6903,.9131,1.7695,1.2632,2.7245" />
  <path class="cls-1" d="M39.7644,45.391c-3.3829,3.3299-6.8204,6.3611-10.3621,9.3611" />
  <path class="cls-1" d="M26.2577,50.8749c.7488,1.346,2.0925,2.9502,3.1446,3.8773" />
  <path class="cls-1" d="M33.8745,32.2927c-.4807,2.9896-.941,5.7511-2.0242,7.9339" />
  <path class="cls-1" d="M33.7356,26.0855c1.8646-1.455,5.0312-.8479,5.4354,1.0694,.773,3.6667-3.102,5.1811-5.2965,5.1378,.0764-1.8403,.2083-3.8739-.1389-6.2072Z" />
  <circle class="cls-2" cx="25.6819" cy="26.7481" r="1.3352" />
  <path class="cls-2" d="M36.7969,29.6455l-.1777-.1758c.9736-.98,1.3643-1.9136,1.0186-2.4365-.3115-.4707-1.377-.6816-3.4395,.1406l-.0918-.2324c1.8936-.7559,3.2598-.7744,3.7393-.0459,.4209,.6372,.0293,1.665-1.0488,2.75Z" />
  <path class="cls-2" d="M21.408,23.3962c1.0491-.5324,3.3359-1.7359,6.7238-1.9918,.0038-.0601-.0311-.4239-.0414-.6021-2.6771-.2192-5.6157,.5651-6.9334,2.1494-.02,.1139,.185,.34,.251,.4444Z" />
  <path class="cls-2" d="M15.002,29.2974c-.3359,0-.6919-.0181-1.0537-.0669l-.0449-.0063-.0303-.0332c-.5947-.6465-1.2681-1.3794-1.6104-2.4326l.2373-.0771c.3203,.9834,.957,1.6875,1.5264,2.3071,1.0142,.1309,1.9839,.0146,2.5669-.0542l.0322,.2476c-.3994,.0474-.9746,.1157-1.6235,.1157Z" />
  <path class="cls-2" d="M24.1299,28.7026c-.8311,0-1.3887-.1846-1.3979-.1885l.0908-.2324c.0161,.0049,1.7397,.5483,3.5874-.3501,1.1851-.5767,1.4692-1.814,1.5625-2.2202l.0166-.0723,.2432,.0596-.0161,.0684c-.1001,.4355-.4043,1.7603-1.6968,2.3892-.8779,.4272-1.7222,.5464-2.3896,.5464Z" />
  <path class="cls-2" d="M16.6263,27.608c-.474-2.5746-4.0307-1.816-4.7444-1.816,.0635,.3974,.0864,.6274,.1489,.9277,1.2392-.0627,2.8387-.4059,4.5955,.8882Z" />
  <path class="cls-2" d="M21.3243,27.5139c2.8471-2.0863,2.4706-2.251,7.0534-2.0627,.0089-.1498-.0258-.4998-.0497-.9089-3.4037-.2441-5.1998-.5735-7.0037,2.9716Z" />
  <circle class="cls-2" cx="15.3976" cy="27.9419" r="1.0602" />
  <path class="cls-1" d="M17.7356,28.6271c-.3229,1.5729-1.1093,2.3854-1.4375,3.4167,.4167,1.1354,1.1354,1.4271,1.6563,1.625" />
  <path class="cls-2" d="M23.0185,34.9361c-.5698,.1572-2.7399-.068-3.749,.1046-.9027,.1544-1.9922,.7059-2.8131,.7268,.9673,.7634,1.8719,2.2955,3.3626,2.3492,2.6799,.0967,4.6015-3.1335,4.5833-3.6979-.4181,.1588-1.1455,.4517-1.3838,.5173Zm-3.0331,2.4075c-1.0501-.053-1.6168-.4382-2.3264-1.1265,1.6366,.0422,4.2144-.3242,5.6262-.7791-.5804,.9098-1.4404,1.9993-3.2998,1.9056Z" />
  <path class="cls-2" d="M15.5727,23.8041c-1.2706-.3608-1.5373-.887-4.1755-1.0871-.0038-.0601-.0643-.4093-.0848-.5796,.9558-.4248,3.186,.4903,4.6862,1.3687,.02,.1139-.133,.2771-.4258,.298Z" />
  <path class="cls-1" d="M46.2773,58.891c4.4444,5.8056,5.8889,11.5278,8.1667,17.8924" />
  <path class="cls-1" d="M48.1384,43.0673c-.9646,3.213-2.0818,6.9391-2.375,10.3932" />
  <path class="cls-1" d="M52.0304,44.641c4.4413,10.9722,6.9135,21.6111,9.5802,32.1424" />
  <path class="cls-1" d="M59.9052,56.4179c2.1221,6.2509,5.7887,14.3805,8.2887,20.362" />
  <circle class="cls-2" cx="28.3498" cy="57.2442" r=".5198" />
  <circle class="cls-2" cx="26.1627" cy="61.8875" r=".6146" />
  <circle class="cls-2" cx="35.3242" cy="31.0594" r=".5573" />
  <path class="cls-2" d="M41.4912,36.8838l-.207-.1406c1.8359-2.7041,1.292-13.0752-2.5303-19.3428l.2129-.1299c3.9932,6.5469,4.3975,16.8545,2.5244,19.6133Z" />
  <path class="cls-2" d="M18.8032,32.7852l-.0938-.2324c.376-.1523,.7896-.1689,1.2651-.0469l-.0615,.2422c-.4199-.1055-.7827-.0957-1.1099,.0371Z" />
  <path class="cls-2" d="M34.5449,30.3403l-.0918-.2324c.623-.2441,1.001-.7534,.9404-1.2681-.0576-.4902-.502-.8398-1.1895-.936l.0352-.248c.8066,.1133,1.3311,.5449,1.4023,1.1548,.0742,.6294-.3672,1.2441-1.0967,1.5298Z" />
  <path class="cls-2" d="M41.5723,34.9082l-.2422-.0625c.7695-2.9863,.0566-8.4629-1.7344-13.3179l.2344-.0869c1.8359,4.9761,2.5352,10.3882,1.7422,13.4673Z" />
</svg>