<svg viewBox="0 0 64 64">
  <path d="M8.03,31.84c-.07-.18-1.97-2.45-3.27-2.78" />
  <path d="M40.19,41.96c-.86,.38-1.75,.69-2.67,.91-1.43,.35-6.48,.26-6.48,.26l-8.48,1.17s-5.42,1.01-9.37,.66c-2.45-.26-4.73-1.38-6.44-3.15-1.13-1.89-1.54-4.13-1.15-6.3,.6-3.77,3.77-7.67,3.77-7.67,.32,.06-.86-1.39,5.1-.11" />
  <path d="M38.95,42.55s3.86,.55,5.52,0,.59,.2,2.99-.59c2.41-.79,6-1.11,7.01-3.67" />
  <path d="M54.06,39.4s2.18-.12,2.48-7.39" />
  <path d="M10.31,44.23s.12,2.13-.91,3.25" />
  <path d="M23.58,44.23s-2.04,4.36-2.4,4.75" />
  <path d="M28.42,43.48c-.4,1.82-.97,3.6-1.72,5.31" />
  <path d="M12.14,36.31c-.11,.11-.15,.29-.23,.65-.04,.17-.07,.35-.09,.52-.02,.28,0,.56,.06,.84,.02,.17,.06,.33,.12,.49,.12,.33,.25,.7,.59,.83,.24,.09,.51,.06,.72-.08,.29-.21,.29-.59,.31-1.31,0-.36-.03-.71-.11-1.06-.03-.24-.12-.48-.25-.68-.07-.12-.17-.22-.29-.29-.27-.13-.6-.1-.83,.09Z" />
  <path d="M12.14,36.31c-.11,.11-.15,.29-.23,.65-.04,.17-.07,.35-.09,.52-.02,.28,0,.56,.06,.84,.02,.17,.06,.33,.12,.49,.12,.33,.25,.7,.59,.83,.24,.09,.51,.06,.72-.08,.29-.21,.29-.59,.31-1.31,0-.36-.03-.71-.11-1.06-.03-.24-.12-.48-.25-.68-.07-.12-.17-.22-.29-.29-.27-.13-.6-.1-.83,.09Z" />
  <path d="M12.14,36.31c-.11,.11-.15,.29-.23,.65-.04,.17-.07,.35-.09,.52-.02,.28,0,.56,.06,.84,.02,.17,.06,.33,.12,.49,.12,.33,.25,.7,.59,.83,.24,.09,.51,.06,.72-.08,.29-.21,.29-.59,.31-1.31,0-.36-.03-.71-.11-1.06-.03-.24-.12-.48-.25-.68-.07-.12-.17-.22-.29-.29-.27-.13-.6-.1-.83,.09Z" />
  <path d="M12.14,36.31c-.11,.11-.15,.29-.23,.65-.04,.17-.07,.35-.09,.52-.02,.28,0,.56,.06,.84,.02,.17,.06,.33,.12,.49,.12,.33,.25,.7,.59,.83,.24,.09,.51,.06,.72-.08,.29-.21,.29-.59,.31-1.31,0-.36-.03-.71-.11-1.06-.03-.24-.12-.48-.25-.68-.07-.12-.17-.22-.29-.29-.27-.13-.6-.1-.83,.09Z" />
  <path d="M12.14,36.31c-.11,.11-.15,.29-.23,.65-.04,.17-.07,.35-.09,.52-.02,.28,0,.56,.06,.84,.02,.17,.06,.33,.12,.49,.12,.33,.25,.7,.59,.83,.24,.09,.51,.06,.72-.08,.29-.21,.29-.59,.31-1.31,0-.36-.03-.71-.11-1.06-.03-.24-.12-.48-.25-.68-.07-.12-.17-.22-.29-.29-.27-.13-.6-.1-.83,.09Z" />
  <path d="M12.14,36.31c-.11,.11-.15,.29-.23,.65-.04,.17-.07,.35-.09,.52-.02,.28,0,.56,.06,.84,.02,.17,.06,.33,.12,.49,.12,.33,.25,.7,.59,.83,.24,.09,.51,.06,.72-.08,.29-.21,.29-.59,.31-1.31,0-.36-.03-.71-.11-1.06-.03-.24-.12-.48-.25-.68-.07-.12-.17-.22-.29-.29-.27-.13-.6-.1-.83,.09Z" />
  <path d="M6.6,35.65c-.12,.2-.19,.42-.21,.65-.04,.17-.06,.34-.08,.52-.01,.28,0,.56,.05,.84,.02,.16,.06,.33,.11,.49,.1,.33,.22,.7,.52,.83,.2,.09,.44,.06,.61-.08,.25-.21,.26-.59,.28-1.31,0-.36-.03-.71-.09-1.06-.02-.24-.08-.47-.18-.68-.06-.12-.15-.21-.25-.29-.24-.16-.57-.12-.76,.09Z" />
  <path d="M8.03,31.84c-.07-.18-1.97-2.45-3.27-2.78" />
  <path d="M8.03,31.84c-.07-.18-1.97-2.45-3.27-2.78" />
  <path d="M15.23,34.12c-.09-.23-2.6-3.19-4.34-3.64" />
  <path d="M9.03,28.05c.05-.1-.78-.7,.11-2.06s.88-1.37,.88-1.37c-.12-.23-.09-.51,.08-.7,.27-.44,1.96-1.3,1.96-1.3,0,0-.59-.59,.72-.99l.39-.12c.66-.21-.25,.03-.25,.03,0,0,1.66-1.37,3.86-3.13" />
  <path d="M16.73,18.47c.42-.49,2.62-1.61,2.62-1.61l.43,1.28" />
  <path d="M19.33,16.99s-1.03-7.28,6.2-7.83c.1,0,3.22-.59,2.87,3.7-.35,4.29-3.13,5.95-3.13,5.95" />
  <path d="M26.87,21.81s3.52-8.2,9.68-5.09c0,0,3.66,1.31,1.29,7.08" />
  <path d="M37.93,23.63s-1.37,2.41-6.08,3.62" />
  <path d="M13.53,21.46c-.12,0,2.83-1.28,4.28,.9s.7-1.94,5.03,4.22" />
  <path d="M22.57,26.3s3.85,1.93,4.42,4.55,4.07,2.71,3.35,7.28c0,0,2.34,3.47-.48,4.92" />
  <path d="M14.38,27.44c.14,2.17,3.63,2.45,5.27,2.65" />
  <path d="M22.35,35.62l-.15-.18c-.4-.47-1.51-1.99-2.7-5.17" />
  <path d="M22.15,35.62s-.4,3.14,.84,5.1c.72,1.1,.72,2.53,0,3.63" />
  <path d="M56.54,32.1s-.59-5.72-3.88-8.1-2.68-3.78-10.2-8.59-13.87-2.85-13.87-2.85" />
  <path d="M54.48,25.65c.21-.1,3.62-.81,3.62-.81l-3.11,1.76" />
  <path d="M39.04,42.55c-.09,0-.42,3.26-1.9,5.42" />
  <path d="M28.12,15.17c.1,0,1.81,.66,1.81,1.31s.8,.53,.8,.53" />
  <path d="M37.68,24.11c.07,.04,1.51-.9,1.9,4.1s1.69-1.26,1.76,3.42c.07,4.68,1.76,3.26,1.2,6.34s-1,4.58-.64,4.8" />
  <path d="M30.29,12.2c2.07,.99,4.46,1.27,5.94,3.2" />
  <path d="M36.15,15.39s4.83,.32,5.82,4.51c0,.05,0,.09,0,.14,0,.03,0,.05,0,.08" />
  <path d="M41.89,20.04c.11,0,1.02-.08,2.07,1.61s.67,2.16,.67,2.16c0,0-.4-1.17,.69,0s1.76,4,1.76,4c0,0,0,.35,.09,.3,.61,1,1.17,2.03,1.68,3.08l-.11,3.57s.83,2.75,.32,4.23-.29,2.6-1.63,2.93-1.86,.42-1.86,.42" />
  <ellipse cx="4.35" cy="28.7" rx=".21" ry=".64" transform="translate(-19.02 11.48) rotate(-45)" />
  <ellipse cx="4.35" cy="28.7" rx=".21" ry=".64" transform="translate(-19.02 11.48) rotate(-45)" />
  <ellipse cx="4.35" cy="28.7" rx=".21" ry=".64" transform="translate(-19.02 11.48) rotate(-45)" />
  <ellipse cx="10.36" cy="30" rx=".27" ry=".85" transform="translate(-18.31 16.38) rotate(-45.54)" />
</svg>