<svg viewBox="0 0 64 64">
  <path d="M17.49,36.86c1.77-1.42,2.53-3.27,3.36-5.3,.54-1.3,.95-2.21,1.15-3.86,.48-3.97,.34-4.42,.29-7.05-.34-.85-.11-.36-1.42-1.37-2.07-1.6-2.54-1.98-3.01-2.8-.1-.18-.91-1.59-.4-2.21,.21-.26,.57-.29,1.12-.29,2.57-.02,3.5,.48,4.65,.05,.35-.13,.68-.42,1.36-1,1.58-1.36,1.93-2.29,2.75-3.1,1.3-1.3,3.01-1.53,4.75-1.76,2.64-.35,4.66,.32,6.5,.94,1.97,.66,3.77,1.26,5.25,2.94,.92,1.05,1.33,2.08,1.76,3.28,1.36,3.82,2.28,6.4,2.72,10.54,.31,2.95,.67,6.76-.74,10.57-.43,1.17-.96,2.14-1.79,3.02-1.05,1.11-2.3,1.77-4.35,2.44-2.61,.85-4.82,1.17-8.07,1.5-2.5,.25-4.64,.52-8,.61-8.98,.26-7.43,.31-9.84,.29-.59,0-1.78,.27-2.62-.39-.69-.54-.89-1.59-.74-2.39,.11-.6,.46-1.24,2.17-2.57,1.78-1.38,2.14-1.26,3.17-2.08Z" />
  <path d="M21.58,29.65c.5-.35,1.53-1.03,2.55-1.77,1.43-1.04,1.75-1.31,2.46-1.63,.78-.36,1.76-.81,3.01-.61,.37,.06,1.51,.24,2.21,1.18,.43,.58,.5,1.17,.57,1.81,.04,.4,.14,1.74-.5,3.33-.2,.5-.93,2.24-2.78,3.43-.75,.48-1.35,.66-2.54,1-1.95,.57-3.53,.67-4.65,.73-1.13,.06-2.63,.07-4.38-.13" />
  <path d="M27.24,36.19c-.25,.78-.39,1.71-.47,2.22-.2,1.25-.3,1.93-.02,2.73,.2,.56,.53,1.01,.94,1.55,.32,.43,.87,.9,1.09,1.13" />
  <path d="M47.61,21.67c-.41,.75-1.45,2.24-2.81,3.23-1.49,1.08-2.92,1.37-4.28,1.65-2.29,.47-4.14,.3-5.58,.16-1.45-.14-2.88-.27-3.75-.49" />
  <path d="M45.45,24.37c.98,.75,1.69,1.07,2.83,1.2" />
  <path d="M27.37,25.92c.02-.35,.12-1.57,.82-2.35,.14-.16,1.09-1.22,1.94-.95,.78,.25,1,1.5,1.12,2.15,.1,.55,.03,1.11,0,1.43" />
  <path d="M47.71,22.08c-.23,.03-1.79,.35-2.64-.24-.96-.66-1.13-1.7-1.17-1.97-.08-.46-.18-1.12,.23-1.62,.42-.51,1.24-.67,2.07-.4" />
  <path d="M38.29,15.84c-.09-.09-.42-.4-.45-.91,0-.08-.03-.62,.37-.97,.46-.41,1.18-.28,1.63,.01,.39,.26,.82,.82,.65,1.41-.18,.61-.86,.78-.93,.8-.68,.16-1.2-.29-1.26-.34Z" />
  <path d="M28.25,17.69c-.17-.54,.12-1.1,.46-1.4,.29-.25,.61-.3,.85-.33,.31-.04,1.31-.19,1.77,.5,.36,.54,.2,1.33-.25,1.79-.61,.62-1.5,.39-1.67,.34-.24-.06-.96-.24-1.16-.89Z" />
  <path d="M34.51,16.7c1.4-.08,1.92,.04,2.91,.23,.52,.1,.27,.92,.19,1.71-.09,.94-.67,2.32-.96,2.63-.31,0-1.48-.57-2.48-1.81-.15-.19-.31-.64-.23-1.96,0-.14,.1-.77,.57-.8Z" />
  <path d="M37.61,18.64c-.09,.94-.67,2.32-.96,2.63-.56-.29-1.48-.57-2.48-1.81" />
  <line x1="37.29" y1="64" x2="37.32" y2="42.92" />
  <line x1="30.32" y1="64" x2="30.35" y2="43.69" />
</svg>