<?xml version="1.0" encoding="UTF-8"?>
<svg id="Layer_1" data-name="Layer 1" xmlns="http://www.w3.org/2000/svg" viewBox="0 0 64 64">
  <defs>
    <style>
      .cls-1 {
        fill: none;
        stroke: currentcolor;
        stroke-miterlimit: 10;
      }
    </style>
  </defs>
  <path class="cls-1" d="M14.1,25c.44-.05,.58-.71,.93-1.26,.9-1.42,2.88-1.72,3.35-1.81,.02,0,.62-.04,1.81-.11,0,0,1.61-.09,2.39-.31,.2-.05,.46-.13,.46-.13,.25-.07,.38-.11,.43-.12,0,0,.39-.11,.99-.15,4.01-.28,7.21,.22,7.21,.22,3.81,.58,5.71,.88,7.78,2.27,1.16,.78,1.98,1.67,2.44,2.16,.88,.95,2.09,2.28,2.8,4.33,.29,.84,.45,1.44,.49,1.9,0,0,.05,.55,.02,1.09-.12,1.5-1.02,2.44-1.35,3.58-.2,.7-.75,2.66,.08,4.57,.28,.64,1.18,1.48,2.97,3.15,1.66,1.55,2.51,2.07,3.36,2.32,.53,.15,1.38,.3,1.8,.37,.8,.13,1.21,.2,1.25,.1,.11-.24-2.05-.69-2.96-2.31-.25-.44-.31-1.46-.42-3.51-.1-1.83-.05-2.31,.17-2.38,.18-.05,.33,.27,1.15,1.09,1.12,1.14,1.65,1.34,2.06,1.4h.63c.81,0,1.35,0,1.72,0,1.87-.02,2.08,0,2.13-.11,.1-.26-.78-.65-1.57-1.28-1.4-1.12-1.13-1.88-2.61-4.24-.65-1.05-2.18-3.05-3.36-4.17-.22-.2-.89-.82-1.28-1.84-.07-.17-.1-.32-.18-.59-.33-1.22-.22-1.68-.55-2.86-.07-.27-.14-.46-.22-.69-.24-.72-.36-1.1-.62-1.49-.28-.43-.48-.75-.83-.82-.14-.02-.28,0-.4-.12-.06-.05-.11-.14-.17-.51-.05-.32-.03-.35-.06-.54-.06-.34-.15-.31-.22-.63-.08-.37,0-.49-.12-.82-.05-.14-.11-.23-.15-.28-.35-.57-.35-.71-.92-1.65-.61-.99-1.15-1.72-1.3-1.91,0,0-.61-.81-1.26-1.52-1.01-1.11-2.75-3.11-5.49-4.22-1.02-.42-2.25-.65-4.71-1.14-2.35-.45-3.53-.68-4.24-.68-4.29,.03-7.63,3.3-9.13,4.7-1.38,1.3-2.52,2.85-3.16,3.71-.3,.41-.7,.92-1.1,1.64-.09,.16-.32,.57-.52,1.03-.42,.95-1.27,2.92-.36,4.08,.08,.08,.42,.56,.82,.52Z"/>
  <path class="cls-1" d="M14.1,25c-.18,.22-.41,.56-.48,1.02-.03,.21-.03,.35,0,.69,.02,.15,.02,.28,.02,.4,0,.38,0,.67-.02,.8-.08,1.03,.17,2.07-.11,3.54-.12,.64-.18,.49-.26,1.03-.06,.4-.23,1.46,.22,2.75,.42,1.18,.71,2.01,1.45,2.27,.47,.17,.65-.08,1.18,.13,.84,.35,1.12,1.27,1.14,1.35,.08,.28,.07,.47,.06,.86-.02,1.08,.06,.88,.05,2.06-.02,3.08-.58,4.48,0,6.49,.16,.57,.95,3.32,3.02,3.98,.42,.13,.48,.05,2.66,.05,2.75,0,2.88,.14,3.55,.02,1.39-.22,1.2-.86,4.06-2.75,1.25-.83,2.92-1.93,4.31-2.61,.62-.3,1.13-.76,1.72-1.11,.22-.12,.56-.32,.72-.69,.15-.35,.02-.68,.03-.8,.06-3.05-.32-4.88,.22-5.08,.13-.05,.38-.02,.56,.05,.23,.09,.35,.25,.42,.32,.42,.42,1.42,.02,3.51-.72,.12-.05,.35-.12,.45-.32,.07-.14,.08-.35,.08-.51,0-.05,0-.13,.02-.25,0-.08,.02-.15,.03-.18,.03-.17,.03-.32,.03-.47,0-.37,.03-.71,.06-1.13,0-.08,.02-.17,.02-.27,0,0,.03-.37,.08-.7,.16-1.12,1.83-2.98,2.24-3.41"/>
  <path class="cls-1" d="M16.94,25.84c.6-.17,.59-.31,1.03-.42,.82-.2,1.55,.08,1.74,.16,1.02,.43,1.62,1.45,1.74,2.35,0,.02-.09,.46-.28,1.36-.13,.61-.19,.92-.25,1.15-.2,.8-.3,1.2-.43,1.39-.55,.79-1.75,1.12-1.75,1.12h0s-1.13-.02-2.3-.02c-1.22-.02-1.41,0-1.6-.18-.17-.16-.19-.35-.19-1.49,0-1.25,.02-1.31,0-1.9-.03-.97-.05-1.45-.08-1.68-.08-.48-.18-.71-.03-.98,.16-.31,.52-.42,.92-.56,.63-.22,.82-.09,1.49-.28Z"/>
  <path class="cls-1" d="M20.1,21.81c1.32,1.29,2.22,1.98,2.81,2.38,.56,.37,1,.91,1.58,1.25,.12,.07,.43,.25,.56,.58,.1,.26,.05,.49,.04,.56-.15,.86,.13,3.04,.15,3.19,.26,1.85,3.19,3.17,4.95,3.61,.53,.13,4.18,1.03,5.65-.69,.53-.62,.64-1.45,.84-3.1,.14-1.12,.21-1.68,0-2.35-.36-1.16-1.38-2.34-2.66-2.56-.08-.02-.09-.02-.73-.02-3.22-.07-2.89-.1-3.71-.09-1.38,.02-1.55,.1-2.2-.02-.29-.05-.85-.19-1.71-.63-.74-.38-1.91-1.09-3.11-2.39"/>
  <path class="cls-1" d="M36.74,27.38c1.55-.7,3.08-1.39,4.63-2.09"/>
  <path class="cls-1" d="M39.96,23.96c-1.34,.62-2.68,1.23-4.01,1.84"/>
  <path class="cls-1" d="M23.13,28.9c.36,.12,.53,.42,.63,.6,.2,.36,.16,.6,.25,1.06,.08,.44,.22,.73,.42,1.16,.46,1,1.03,1.49,1.47,2.36,.08,.15,.18,.38,.25,.68,.06,.25,.08,.46,.08,.58,.02,.19,.03,.42,0,.58-.1,.55-.87,.9-1.32,1.02-.18,.05-1.08,.29-1.66-.16-.55-.42-.49-1.22-.69-1.2-.12,0-.21,.28-.34,.66-.15,.47-.11,.56-.21,.68-.29,.32-1.26,.26-1.75-.22-.59-.59-.28-1.65-.12-2.18,.32-1.08,.75-.99,1.12-2.15,.32-1.02,.46-2.16,.46-2.16,.05-.47,.08-.85,.4-1.12,.25-.22,.65-.32,1-.21Z"/>
  <path class="cls-1" d="M17.59,41.63c.25-.53,1.7-.35,3.43-.26,0,0,1.37,.07,3.38,.02,2.03-.05,4.07,.05,6.1,0,.18,0,.63-.02,.98,.26,.47,.38,.58,1.19,.27,1.75-.05,.1-.17,.26-.78,.64-1.39,.87-1.86,.68-2.35,1.3-.22,.27-.32,.55-.65,.66-.23,.08-.41,.02-.74-.02-.15-.02-.52-.02-1.24,0-2.04,.04-4.77,1.02-6.74-.06-.88-.48-1.81-1.49-1.7-2.28,.02-.15,.08-.34,.11-.7,.05-.82-.19-1.05-.07-1.29Z"/>
  <path class="cls-1" d="M20.92,43.97v2.36"/>
  <path class="cls-1" d="M22.14,43.97c0,.68,.02,1.68,.03,2.37"/>
  <path class="cls-1" d="M23.37,43.96c0,.65,.01,1.61,.02,2.25"/>
  <path class="cls-1" d="M24.52,43.96c0,.63,0,1.52,.02,2.15"/>
  <path class="cls-1" d="M25.77,43.97v2.03"/>
  <path class="cls-1" d="M26.98,43.97c0,.55,0,1.41,0,1.96"/>
  <path class="cls-1" d="M19.71,43.96c0,.62,0,1.51,0,2.12"/>
  <path class="cls-1" d="M18.86,43.97c0,.51,0,1.19,0,1.7"/>
  <path class="cls-1" d="M28.19,43.96v1.91"/>
  <path class="cls-1" d="M29.32,43.97c0,.24,0,.68,0,.92"/>
  <path class="cls-1" d="M18.53,41.34c.02,.78,.03,1.55,.04,2.32"/>
  <path class="cls-1" d="M19.73,41.35c0,.77,0,1.54-.02,2.31"/>
  <path class="cls-1" d="M21.33,41.38v2.28"/>
  <path class="cls-1" d="M22.9,41.48c0,.73,0,1.46,.02,2.19"/>
  <path class="cls-1" d="M24.95,41.46c0,.74,0,1.47-.02,2.21"/>
  <path class="cls-1" d="M26.17,41.37c0,.77,0,1.53,.02,2.3"/>
  <path class="cls-1" d="M27.36,41.44c0,.75,0,1.48-.02,2.23"/>
  <path class="cls-1" d="M28.58,41.48c0,.73,0,1.46-.02,2.19"/>
  <path class="cls-1" d="M29.37,41.48c0,.73-.02,1.46-.03,2.19"/>
  <line class="cls-1" x1="18.23" y1="43.67" x2="31.49" y2="43.67"/>
  <path class="cls-1" d="M17.63,43.97c4.25,0,9.2,0,13.45,0"/>
  <path class="cls-1" d="M18.23,43.67h-.6"/>
  <path class="cls-1" d="M28.19,17.04c1.09,.1,2.27,.25,3.53,.48,1.62,.3,3.08,.67,4.37,1.07"/>
  <path class="cls-1" d="M41.12,20.51c.74,.31,1.61,.75,2.52,1.39,1.45,1.02,2.42,2.15,3.02,2.99"/>
  <path class="cls-1" d="M22.13,17.47c-.94-.03-2.18,.03-3.58,.38-2.24,.55-3.84,1.56-4.78,2.26"/>
  <path class="cls-1" d="M37.21,15.56c.38,.12,.98,.32,1.75,.54,1.03,.3,1.78,.47,1.91,.5,.91,.22,2.31,1.15,4.89,4.91"/>
  <path class="cls-1" d="M27.76,12.79c.74,.05,1.59,.15,2.52,.35,1.27,.27,2.34,.65,3.19,1.02"/>
  <path class="cls-1" d="M24.46,12.9c-.44,0-1.12,0-1.95,.02-.85,0-1.12,.02-1.51,.12-.43,.12-.58,.24-1.26,.54-.35,.15-.85,.36-1.46,.58"/>
  <path class="cls-1" d="M37.64,26.97c.02,.51,.02,.92,0,1.19,0,.27-.02,.74,.14,.78,.05,.02,.08-.02,.14,0,.17,.05,.15,.49,.15,.56-.03,.77,.03,1.54-.04,2.31-.1,1.1-.11,1.37,.09,1.65,.21,.29,.54,.42,.77,.48"/>
  <path class="cls-1" d="M25.07,26.1c.12-.25,.4-.71,.93-1.09,.48-.35,.96-.47,1.23-.52"/>
</svg>