<?xml version="1.0" encoding="UTF-8"?>
<svg id="Layer_1" data-name="Layer 1" xmlns="http://www.w3.org/2000/svg" viewBox="0 0 64 64">
  <defs>
    <style>
      .cls-1 {
        fill: none;
        stroke: currentcolor;
        stroke-miterlimit: 10;
      }
    </style>
  </defs>
  <circle class="cls-1" cx="31.39" cy="32.11" r="24.39"/>
  <circle class="cls-1" cx="22.12" cy="26.21" r="5.24"/>
  <circle class="cls-1" cx="42.78" cy="26.21" r="5.24"/>
  <path class="cls-1" d="M27.55,34.17c.1-1.29,1.77-2.86,4.18-3.46,1.9-.47,3.5,.19,4.08,.43,.64,.27,1.35,.57,1.89,1.29,.48,.65,.62,1.38,.65,2.67,.05,2.2-.25,5.7-1.03,5.75-.27,.02-.37-.41-.94-1.14-.85-1.07-1.79-1.61-2.64-2.1-1.7-.97-3.11-1.13-5.57-2.49-.21-.12-.46-.26-.56-.53l-.06-.42Z"/>
  <path class="cls-1" d="M27.91,34.96c0,.24,.02,.43,.09,.74,.11,.45,.16,.56,.53,1,1.06,1.26,1.98,2.1,2.71,2.76,1.23,1.12,1.49,1.33,1.99,1.46,.31,.08,1.03,.22,1.83-.08,1.07-.4,1.31-.79,1.42-1.01"/>
  <line class="cls-1" x1="25.36" y1="30.33" x2="28.11" y2="33.07"/>
  <path class="cls-1" d="M38.57,29.32l-1.8,2.27"/>
  <line class="cls-1" x1="10.48" y1="44.67" x2="15.57" y2="41.15"/>
  <path class="cls-1" d="M15.63,50.73c.12-.11,2.95-3.8,2.95-3.8"/>
  <path class="cls-1" d="M32,56.5c.08-.19-.1-5-.1-5"/>
  <path class="cls-1" d="M47.98,49.98l-3.37-4.05"/>
  <path class="cls-1" d="M51.58,45.79c-.08-.05-4.81-4.48-4.81-4.48"/>
  <line class="cls-1" x1="53.35" y1="23.09" x2="52.15" y2="23.77"/>
  <path class="cls-1" d="M52.24,19.46l-1.21,1.17"/>
  <path class="cls-1" d="M50,16.35l-.03,1.56-.85,1.21"/>
  <line class="cls-1" x1="11.16" y1="19.38" x2="12.67" y2="20.39"/>
  <line class="cls-1" x1="12.29" y1="16.95" x2="13.67" y2="18.73"/>
  <path class="cls-1" d="M12.67,16.48c.64-.41,1.57-.94,2.76-1.38,.74-.27,2.68-.99,4.72-.86,2.18,.14,3.61,1.18,6.35,3.17,.98,.71,4.61,3.86,5.49,4.92,.2,.24,.42,.49,.47,.49,.04,0,.38-.32,.58-.53,.63-.66,1.97-1.82,4.76-3.71,3.12-2.11,4.69-3.17,6.29-3.35,1.96-.22,3.48,.41,4.58,.8l1.6,.64"/>
  <polyline class="cls-1" points="15.36 15.12 15.4 16.29 16.15 17.74"/>
  <path class="cls-1" d="M22.49,21.02c.55,1.52,.47,2.84-.41,3.71-1.68,1.66-3.45,.49-4.98,0"/>
  <path class="cls-1" d="M42.95,20.97c.75,1.12,1.21,3.44-.93,4.64-1.38,.77-3.18-.23-4.19-1.12"/>
</svg>