<svg viewBox="0 0 64 64">
  <path d="M23.46,18.99c-.4,.85-.96,2.33-.97,4.22-.03,3.64,1.99,7.06,4.89,8.89,.74,.47,2.69,1.66,5.28,1.47,.65-.05,2.02-.16,3.36-1.08,1.22-.84,1.76-1.9,2.61-3.64,.81-1.65,1.42-2.78,1.56-4.44,.1-1.22,.22-2.67-.72-3.97-1.02-1.41-3.02-2.3-4.53-1.89-.61,.17-.91,.48-1.75,.53-.85,.05-1.04-.25-2-.36-1.49-.17-1.64,.48-2.78,.25-1.23-.25-1.59-1.13-2.36-.89-.45,.14-.48,.48-1.08,.75-.55,.25-1.11,.23-1.5,.17Z" />
  <path d="M31.39,26c-.39,.73-.46,.9-.64,1.32,.44-.13,.6-.14,1.15-.36" />
  <path d="M29.1,30.04c1.93,.5,2.14,.53,4.08-.11" />
  <path d="M32.69,30.09c.03,.8-.11,1.46-.27,1.67-.21-.15-.5-.57-.79-1.42" />
  <path d="M30.82,30.32c-.27,1-.36,1.1-.58,1.25-.19-.19-.35-.3-.61-1.28" />
  <path d="M23.92,21.79c.19,.16,.47,.35,.83,.35,.35,0,.61-.16,.69-.21,.38-.22,1.37-.05,3.43,1.18" />
  <path d="M33.63,23.38c.56-.58,1.27-.98,1.62-1.05,.84-.16,1.36,.25,2.31,.02,.44-.1,.78-.3,.98-.44" />
  <path d="M15.42,72.31c.63-1.54,1.56-4.1,2.17-7.38,.53-2.89,.65-5.77,.88-11.42,.19-4.9,.11-6.11,.83-8.21,.58-1.69,1.33-3.99,3.42-5.75,.6-.51,3.04-2.57,5.12-2.67,.14,0,.43-.01,.71-.21,.82-.58,.88-2.36,.59-3.68" />
  <path d="M46.96,72.27c-1.22-3.87-1.99-7.08-2.46-9.29-1.27-5.98-1.79-10.17-1.79-10.17-.09-.75-.55-4.47-1.67-8.88-.36-1.42-.82-3.02-2.19-4.24-.64-.56-2-1.5-3.03-1.74-.09-.02-.51-.12-1.4-.45-.25-.09-.48-.21-.51-.27-.5-.98-.49-2.64-.29-3.78" />
  <path d="M38.61,13.08c.49-.35,1.16-.91,1.75-1.73,1.4-1.95,1.28-3.86,1.65-3.85,.37,0,.97,1.98,.48,3.92-.41,1.63-1.46,2.68-2.04,3.19" />
  <path d="M23.67,13.87c-.66-.52-1.52-1.34-2.15-2.54-.96-1.82-.88-3.55-1.1-3.54-.2,0-.45,1.45-.31,3,.19,2.24,1.11,3.99,1.88,5.12" />
  <path d="M22.88,12.56c.69-.75,1.82-1.8,3.46-2.67,.84-.44,2.94-1.52,5.69-1.46,4.05,.09,6.78,2.57,7.52,3.29" />
  <path d="M41.61,13.79c1,1.1,1.32,2.07,1.44,2.73,.18,1.06-.14,1.49-.04,2.94,.05,.76,.18,1.27,.6,2.73,.77,2.67,1.03,3.37,1.27,4.23,1.04,3.76-.14,4.19,.88,7.04,.86,2.4,1.74,2.21,2.23,4.46,.47,2.17-.32,2.46,.25,4.65,.54,2.08,1.55,2.93,1.06,4.17-.22,.56-.71,1.1-1.31,1.33-.43,.17-.62,.07-2.04-.06-1.61-.15-1.78-.05-2.4-.25-.74-.24-1.12-.91-1.8-.78" />
  <path d="M21.2,15.21c-.42,.64-.93,1.62-1.11,2.88-.17,1.19,.11,1.53,.04,2.92-.06,1.22-.31,1.66-.9,3.89-.53,2-.78,3.03-.88,3.72-.24,1.71-.03,1.88-.32,3.5-.32,1.83-.62,1.79-.71,3.01-.13,1.87,.58,1.94,.4,3.64-.2,1.97-1.12,3.58-1.12,3.58-.29,.51-.6,.93-.64,1.61-.04,.63,.16,1.49,.74,1.79,.23,.12,.34,.06,.71,.14,.61,.13,1.25,.35,1.54,.61" />
  <path d="M24.94,22.23c-.03,.21-.07,.76,.25,1.33,.09,.17,.44,.74,1.14,.96,.2,.06,.59,.19,.99,.02,.34-.14,.52-.42,.67-.67,.24-.38,.32-.75,.35-1.02" />
  <path d="M37.46,22.48c.03,.24,.06,.79-.24,1.35-.27,.5-.89,1.2-1.64,1.11-.63-.08-1.02-.68-1.2-.96-.23-.36-.33-.71-.37-.93" />
  <path d="M33.04,18.89c-.3-.66-.6-1.51-.77-2.53-.38-2.31,.13-4.23,.5-5.26" />
  <path d="M35.73,18.31c.04-.92,.01-2.12-.25-3.49-.25-1.28-.62-2.34-.98-3.16" />
  <path d="M38.48,19.36c-.14-.95-.29-1.91-.45-2.88-.16-.97-.32-1.93-.49-2.88" />
  <path d="M29.25,18.84c.56-1.95,.95-3.25,2.05-5.03" />
  <path d="M25.62,18.12c.22-.91,.58-2.02,1.17-3.23,.7-1.44,1.51-2.55,2.19-3.34" />
  <path d="M23.43,18.87c.55-2.72,.88-4.04,2.82-6.53" />
  <path d="M28.87,36.48c.53,.48,.84,.73,1.99,1.44,1.56-.4,1.18-.31,2.68-1.15" />
  <path d="M38.13,72.44c-.16-1.63-.44-4.03-.92-6.92-.51-3.1-1.14-5.78-2.36-11.03-.86-3.67-1.3-5.54-1.88-7.5-.87-2.95-1.76-5.36-2.42-7.04" />
  <path d="M22.38,72.46c.1-2.89,.36-6.51,.97-10.67,.3-2.08,.81-5.47,1.94-9.75,.88-3.31,2.24-7.59,4.43-12.41" />
  <path d="M27.92,37.02c-.05,.11-.21,.54-.01,.94,.25,.5,.97,.77,1.71,.52" />
  <path d="M34.37,37.62c-.05,.27-.18,.67-.51,1-.62,.61-1.7,.71-2.7,.23" />
  <path d="M24.41,56.5c3.64,1.37,6.84,1.84,10.61-.17" />
  <path d="M35.43,57.98c-5.11,1.81-7.45,1.15-11.31-.17" />
  <path d="M30.03,39.78c-.58,1.76-.91,3.54-1.03,4.63-.18,1.63-.13,2.94-.06,4.48,.07,1.71,.18,2.09,.27,3.67,.07,1.16,.12,2.87,0,4.98" />
  <path d="M30.81,40.59c-.14,.79-.43,2.65-.51,4.01-.11,1.91,0,3.33,.12,5,.13,1.73,.32,3.08,.67,5.58,.13,.91,.24,1.66,.31,2.17" />
  <path d="M29.22,57.4c-.22-.16-.71-.86-.85-1.27-.07-.21-.08-.35-.1-.75-.07-1.38-.11-1.26-.08-1.53,.08-.76,.33-.76,.33-1.39,0-.47-.14-.46-.25-1.21-.09-.57,0-.59-.08-1.46-.07-.79-.13-.77-.14-1.28,0-.67,.1-.72,.06-1.25-.06-.65-.25-.7-.22-1.14,.03-.55,.34-.76,.57-1.26,.19-.41,.52-1.24-.04-2.17" />
  <path d="M31.29,41.89c-.43,.53-.11,1.28-.15,1.56-.11,.66-.41,1.06-.21,1.53,.09,.22,.17,.18,.24,.39,.12,.41-.17,.62-.15,1.14,.01,.37,.16,.34,.18,.72,.03,.54-.26,.65-.25,1.12,.01,.48,.32,.48,.42,1.06,.1,.56-.17,.67-.1,1.28,.07,.55,.29,.5,.4,1.08,.14,.7-.17,.85-.01,1.58,.1,.48,.24,.47,.26,.88,.02,.51-.21,.59-.19,1.12,.01,.47,.19,.58,.14,.97-.04,.31-.31,.88-.43,1.03" />
  <path d="M25.81,59.69c-.13,4.81-.74,8.25-1.48,12.35" />
  <path d="M28.5,60.31c0,3.83-.63,6.4-1.71,9.31" />
  <path d="M29.67,63.64c-.21,2.31,.33,3.97,.5,5.96" />
  <path d="M30.79,60.16c.6,5.44,1.28,6.37,2.56,8.19" />
  <path d="M34.36,60.77c-.15,6.9,.85,8.17,2.48,11.23" />
  <path d="M29.35,34.92c1.32,.67,2.59,.6,4.04,.26" />
  <path d="M33.39,35.89c-1.56,.23-2.72,.36-4.11-.19" />
  <path d="M22.9,17.46c-.39,.39-.91,1.01-1.14,1.89-.16,.61-.08,.95-.17,1.67-.07,.57-.26,1.39-.78,2.36" />
  <path d="M20.68,26.32c-.14,2.67-.61,3.13-1.11,4.61" />
  <path d="M21.9,28.74c-.04,2.19-.85,3.14-.97,4.94" />
  <path d="M24.38,31.38c-.5,.91-.52,1.59-.44,2.06,.08,.5,.3,.8,.31,1.42,0,.54-.14,.98-.28,1.28" />
  <path d="M22.29,33.94c-.35,.47-1.02,1.5-1.19,2.97-.13,1.09,.06,1.98,.22,2.5" />
  <path d="M19.43,34.13c.14,1.42-.47,2.14-.47,3.39" />
  <path d="M19.88,39.3c-1.25,1.87-1.34,2.86-1.14,3.42,.05,.13,.19,.46,.14,.89-.06,.54-.39,.95-.67,1.22" />
  <path d="M40.71,18.19c.6,.91,1.34,2.25,1.83,4,.63,2.23,.59,4.15,.47,5.36" />
  <path d="M42.02,28.44c.09,.66,.28,1.69,.72,2.89,.56,1.51,1.07,2.04,1.5,3.31,.26,.78,.54,1.97,.44,3.58" />
  <path d="M39.24,32.05c.08,1.63,.17,3.26,.25,4.89" />
  <path d="M37.18,33.96c.19,.48,.37,1.04,.53,1.67,.15,.63,.25,1.21,.31,1.72" />
  <path d="M40.85,35.41c.48,.5,1.11,1.32,1.42,2.44,.35,1.29,.03,2.06,.14,3.67,.05,.79,.23,1.95,.78,3.33" />
  <path d="M43.68,37.99c0,1.49,.38,2.47,.72,3.08,.74,1.34,1.77,1.83,2.28,3.42,.21,.64,.25,1.21,.25,1.56" />
  <path d="M24.5,21.13c2.19-.23,2.9,.19,4.41,.71" />
  <path d="M33.62,22.04c1.44-.75,2.52-.8,4.44-.8" />
  <circle cx="30.29" cy="39.07" r=".76" />
  <circle cx="35.72" cy="23.45" r=".24" />
  <circle cx="26.7" cy="23.19" r=".19" />
</svg>